<?xml version="1.0" encoding="UTF-8"?>
<!DOCTYPE svg PUBLIC "-//W3C//DTD SVG 1.1//EN" "http://www.w3.org/Graphics/SVG/1.1/DTD/svg11.dtd">
<svg xmlns="http://www.w3.org/2000/svg" version="1.1" width="400px" height="400px" style="shape-rendering:geometricPrecision; text-rendering:geometricPrecision; image-rendering:optimizeQuality; fill-rule:evenodd; clip-rule:evenodd" xmlns:xlink="http://www.w3.org/1999/xlink">
<g><path style="opacity:1" fill="#fefefe" d="M 172.5,52.5 C 194.404,51.3532 215.738,54.1866 236.5,61C 241.833,61.3333 247.167,61.6667 252.5,62C 263.085,66.6262 273.085,72.2928 282.5,79C 278.167,79.3333 273.833,79.6667 269.5,80C 269.833,80.3333 270.167,80.6667 270.5,81C 275.5,81.3333 280.5,81.6667 285.5,82C 289.5,84.6667 292.833,88 295.5,92C 300.833,92.3333 306.167,92.6667 311.5,93C 315.666,97.6794 319.333,102.679 322.5,108C 317.5,108.333 312.5,108.667 307.5,109C 308.956,110.745 310.289,112.578 311.5,114.5C 316.167,115.167 320.833,115.833 325.5,116.5C 325.709,117.086 326.043,117.586 326.5,118C 322.167,118.333 317.833,118.667 313.5,119C 315.017,121.204 316.35,123.538 317.5,126C 310.508,126.5 303.508,126.666 296.5,126.5C 297.883,131.069 299.55,135.569 301.5,140C 308.856,140.169 316.189,140.669 323.5,141.5C 324.73,143.933 325.73,146.433 326.5,149C 324.19,149.497 321.857,149.663 319.5,149.5C 319.5,150.5 319.5,151.5 319.5,152.5C 321.5,152.5 323.5,152.5 325.5,152.5C 324.188,156.004 322.188,159.17 319.5,162C 326.833,162.333 334.167,162.667 341.5,163C 327.02,176.044 310.02,181.044 290.5,178C 277.204,182.692 263.538,185.526 249.5,186.5C 250.14,192.425 251.807,198.092 254.5,203.5C 252.922,204.298 251.256,204.798 249.5,205C 250.167,206 250.833,207 251.5,208C 258.542,208.714 258.876,209.714 252.5,211C 254.405,212.815 256.072,214.815 257.5,217C 259.5,217.333 261.5,217.667 263.5,218C 268.167,222.667 272.833,227.333 277.5,232C 279.5,232.333 281.5,232.667 283.5,233C 286.5,236.667 289.5,240.333 292.5,244C 291.167,244.333 289.833,244.667 288.5,245C 289.833,247.333 291.167,249.667 292.5,252C 290.5,252.333 288.5,252.667 286.5,253C 289.476,254.859 292.643,256.359 296,257.5C 297.961,260.31 299.127,263.144 299.5,266C 297.833,266.333 296.167,266.667 294.5,267C 296.487,270.757 297.487,274.59 297.5,278.5C 299.045,279.452 300.712,279.785 302.5,279.5C 302.5,283.833 302.5,288.167 302.5,292.5C 303.833,292.5 305.167,292.5 306.5,292.5C 306.5,293.5 306.5,294.5 306.5,295.5C 304.856,295.286 303.356,295.62 302,296.5C 301.547,300.894 300.381,305.061 298.5,309C 300.833,309.333 303.167,309.667 305.5,310C 302.417,315.088 298.583,319.588 294,323.5C 294.404,320.275 294.571,317.108 294.5,314C 293.809,312.933 293.309,311.766 293,310.5C 290.059,309.941 287.225,309.107 284.5,308C 284.5,306.333 284.5,304.667 284.5,303C 283.076,300.899 281.742,298.733 280.5,296.5C 285.175,294.496 284.508,292.996 278.5,292C 275.39,288.296 272.39,284.463 269.5,280.5C 267.5,279.833 265.5,279.167 263.5,278.5C 261.941,276.531 260.274,274.698 258.5,273C 258.833,272.667 259.167,272.333 259.5,272C 258.039,270.649 256.706,269.149 255.5,267.5C 257.078,266.702 258.744,266.202 260.5,266C 257.666,263.031 255.833,259.864 255,256.5C 252.281,255.556 249.448,255.223 246.5,255.5C 246.5,254.5 246.5,253.5 246.5,252.5C 248.527,252.662 250.527,252.495 252.5,252C 251.499,249.935 250.832,247.435 250.5,244.5C 251.833,244.5 253.167,244.5 254.5,244.5C 253.376,240.89 252.376,237.224 251.5,233.5C 249.955,232.548 248.288,232.215 246.5,232.5C 245.352,227.905 244.519,223.238 244,218.5C 242.301,217.594 240.467,217.261 238.5,217.5C 238.5,215.167 238.5,212.833 238.5,210.5C 239.978,210.762 241.311,210.429 242.5,209.5C 240.955,208.548 239.288,208.215 237.5,208.5C 237.5,207.167 237.5,205.833 237.5,204.5C 239.167,204.5 240.833,204.5 242.5,204.5C 241.646,198.879 241.313,193.212 241.5,187.5C 234.492,187.334 227.492,187.5 220.5,188C 220.043,188.414 219.709,188.914 219.5,189.5C 220.575,194.434 221.242,199.434 221.5,204.5C 219.833,204.5 218.167,204.5 216.5,204.5C 216.5,205.833 216.5,207.167 216.5,208.5C 218.604,208.201 220.604,208.534 222.5,209.5C 220.955,210.452 219.288,210.785 217.5,210.5C 217.5,212.833 217.5,215.167 217.5,217.5C 219.5,217.5 221.5,217.5 223.5,217.5C 224.275,222.484 224.942,227.484 225.5,232.5C 227.288,232.215 228.955,232.548 230.5,233.5C 231.921,237.028 232.588,240.694 232.5,244.5C 230.801,244.34 229.134,244.506 227.5,245C 228.435,247.381 228.768,249.881 228.5,252.5C 226.5,252.5 224.5,252.5 222.5,252.5C 222.5,253.5 222.5,254.5 222.5,255.5C 224.833,255.5 227.167,255.5 229.5,255.5C 230.326,259.136 230.992,262.803 231.5,266.5C 229.712,266.215 228.045,266.548 226.5,267.5C 227.288,271.574 228.288,275.574 229.5,279.5C 231.5,279.5 233.5,279.5 235.5,279.5C 236.702,283.578 238.202,287.578 240,291.5C 242.176,291.988 244.009,292.988 245.5,294.5C 244.675,295.386 243.675,295.719 242.5,295.5C 244.421,299.937 245.754,304.603 246.5,309.5C 249.167,309.5 251.833,309.5 254.5,309.5C 255.685,314.425 256.351,319.425 256.5,324.5C 254.167,324.5 251.833,324.5 249.5,324.5C 250.656,334.848 246.989,342.848 238.5,348.5C 235.24,347.145 233.573,344.645 233.5,341C 236.006,335.808 237.34,330.308 237.5,324.5C 239.857,324.663 242.19,324.497 244.5,324C 243.276,319.375 241.609,314.875 239.5,310.5C 236.833,309.833 234.167,309.167 231.5,308.5C 229.04,304.414 226.707,300.247 224.5,296C 225.624,295.751 226.624,295.251 227.5,294.5C 227.333,294.167 227.167,293.833 227,293.5C 224.763,292.944 222.763,291.944 221,290.5C 218.966,287.294 217.133,283.96 215.5,280.5C 213.314,279.779 211.147,279.113 209,278.5C 207.5,274.833 206,271.167 204.5,267.5C 206.078,266.702 207.744,266.202 209.5,266C 208.083,263.017 207.25,259.85 207,256.5C 204.619,255.565 202.119,255.232 199.5,255.5C 199.5,254.5 199.5,253.5 199.5,252.5C 201.833,252.5 204.167,252.5 206.5,252.5C 206.5,249.833 206.5,247.167 206.5,244.5C 208.199,244.66 209.866,244.494 211.5,244C 210.54,240.27 210.207,236.437 210.5,232.5C 208.833,232.5 207.167,232.5 205.5,232.5C 205.197,227.57 205.531,222.737 206.5,218C 204.866,217.506 203.199,217.34 201.5,217.5C 201.5,215.167 201.5,212.833 201.5,210.5C 208.167,209.833 208.167,209.167 201.5,208.5C 201.5,207.167 201.5,205.833 201.5,204.5C 203.467,204.739 205.301,204.406 207,203.5C 207.471,198.156 207.971,192.822 208.5,187.5C 202.794,187.171 197.128,187.505 191.5,188.5C 192.451,193.77 192.785,199.103 192.5,204.5C 190.833,204.5 189.167,204.5 187.5,204.5C 187.33,205.822 187.663,206.989 188.5,208C 195.136,209.145 195.136,209.978 188.5,210.5C 188.5,212.833 188.5,215.167 188.5,217.5C 190.167,217.5 191.833,217.5 193.5,217.5C 193.5,222.5 193.5,227.5 193.5,232.5C 195.167,232.5 196.833,232.5 198.5,232.5C 198.665,236.182 198.499,239.848 198,243.5C 196.301,244.406 194.467,244.739 192.5,244.5C 192.5,247.167 192.5,249.833 192.5,252.5C 190.167,252.5 187.833,252.5 185.5,252.5C 185.5,253.5 185.5,254.5 185.5,255.5C 187.857,255.337 190.19,255.503 192.5,256C 191.155,258.324 190.822,260.658 191.5,263C 189.637,265.516 187.137,267.016 184,267.5C 183.727,269.101 183.227,270.601 182.5,272C 182.833,272.333 183.167,272.667 183.5,273C 182.167,275 180.833,277 179.5,279C 181.256,279.202 182.922,279.702 184.5,280.5C 181.614,284.448 178.614,288.281 175.5,292C 176.833,292.333 178.167,292.667 179.5,293C 177.551,294.835 175.217,296.001 172.5,296.5C 169.628,300.619 166.628,304.786 163.5,309C 166.167,309.333 168.833,309.667 171.5,310C 169.713,311.821 168.38,313.988 167.5,316.5C 169.254,322.622 166.921,325.288 160.5,324.5C 160.666,330.509 160.499,336.509 160,342.5C 158.082,345.197 155.749,346.53 153,346.5C 146.828,340.501 144.328,333.168 145.5,324.5C 147.833,324.5 150.167,324.5 152.5,324.5C 152.309,319.105 153.642,314.272 156.5,310C 153.833,309.667 151.167,309.333 148.5,309C 148.689,306.705 150.023,304.705 152.5,303C 152.167,302.667 151.833,302.333 151.5,302C 152.966,300.448 153.966,298.614 154.5,296.5C 156.045,295.548 157.712,295.215 159.5,295.5C 159.5,294.5 159.5,293.5 159.5,292.5C 158.448,292.649 157.448,292.483 156.5,292C 159.338,287.895 161.005,283.729 161.5,279.5C 160.167,279.5 158.833,279.5 157.5,279.5C 158.269,275.229 159.769,271.229 162,267.5C 165.045,267.208 167.212,265.708 168.5,263C 167.366,261.984 167.699,261.317 169.5,261C 169.146,259.374 169.146,257.541 169.5,255.5C 167.5,255.5 165.5,255.5 163.5,255.5C 163.5,254.5 163.5,253.5 163.5,252.5C 166.247,252.813 168.914,252.48 171.5,251.5C 170.098,250.158 170.431,249.324 172.5,249C 171.289,247.887 171.289,246.72 172.5,245.5C 174.5,244.833 176.5,244.167 178.5,243.5C 178.291,242.914 177.957,242.414 177.5,242C 179.227,239.096 179.893,235.93 179.5,232.5C 178.167,232.5 176.833,232.5 175.5,232.5C 175.701,227.758 176.368,223.091 177.5,218.5C 175.955,217.548 174.288,217.215 172.5,217.5C 173.833,215.167 173.833,212.833 172.5,210.5C 174.604,210.799 176.604,210.466 178.5,209.5C 176.955,208.548 175.288,208.215 173.5,208.5C 173.759,204.932 175.759,203.599 179.5,204.5C 179.76,198.828 180.093,193.161 180.5,187.5C 174.19,186.81 167.857,186.476 161.5,186.5C 161.666,192.176 161.499,197.843 161,203.5C 159.301,204.406 157.467,204.739 155.5,204.5C 155.5,205.833 155.5,207.167 155.5,208.5C 162.167,209.167 162.167,209.833 155.5,210.5C 155.007,212.806 154.674,215.139 154.5,217.5C 155.833,217.5 157.167,217.5 158.5,217.5C 158.483,222.268 157.816,226.934 156.5,231.5C 157.689,232.429 159.022,232.762 160.5,232.5C 159.833,236.5 159.167,240.5 158.5,244.5C 156.473,244.338 154.473,244.505 152.5,245C 151.5,247.333 150.5,249.667 149.5,252C 146.905,252.226 144.405,252.726 142,253.5C 141.833,253.833 141.667,254.167 141.5,254.5C 143.5,255.167 145.5,255.833 147.5,256.5C 146,259.5 144.5,262.5 143,265.5C 140.931,266.264 138.764,266.764 136.5,267C 133.885,271.283 130.885,275.283 127.5,279C 128.833,279.333 130.167,279.667 131.5,280C 128.115,283.717 125.115,287.717 122.5,292C 123.833,292.333 125.167,292.667 126.5,293C 119.786,296.231 116.453,301.731 116.5,309.5C 118.5,309.5 120.5,309.5 122.5,309.5C 121.965,313.819 121.465,318.152 121,322.5C 116.748,318.919 113.248,314.752 110.5,310C 107.905,309.774 105.405,309.274 103,308.5C 100.424,304.525 98.9241,300.192 98.5,295.5C 99.8333,295.5 101.167,295.5 102.5,295.5C 102.5,294.5 102.5,293.5 102.5,292.5C 100.856,292.714 99.3561,292.38 98,291.5C 97.2401,287.775 97.4068,284.108 98.5,280.5C 96.9547,279.548 95.288,279.215 93.5,279.5C 93.6871,275.087 94.3538,270.754 95.5,266.5C 97.5,266.5 99.5,266.5 101.5,266.5C 102.246,262.93 103.579,259.596 105.5,256.5C 103.5,255.833 101.5,255.167 99.5,254.5C 99.6667,254.167 99.8333,253.833 100,253.5C 102.405,252.726 104.905,252.226 107.5,252C 109.167,249.667 110.833,247.333 112.5,245C 114.577,244.808 116.577,244.308 118.5,243.5C 121.687,240.147 124.687,236.647 127.5,233C 126.167,232.667 124.833,232.333 123.5,232C 128.201,227.634 132.534,222.967 136.5,218C 134.833,217.667 133.167,217.333 131.5,217C 133.081,215.172 134.415,213.172 135.5,211C 138.043,210.86 140.377,210.194 142.5,209C 140.744,208.798 139.078,208.298 137.5,207.5C 139.098,205.119 141.432,203.952 144.5,204C 149.006,197.488 150.839,190.321 150,182.5C 148.933,183.191 147.766,183.691 146.5,184C 133.646,185.229 121.313,183.229 109.5,178C 116.167,177.667 122.833,177.333 129.5,177C 119.356,174.406 110.356,169.74 102.5,163C 94.5,162.667 86.5,162.333 78.5,162C 77.1667,160.333 75.8333,158.667 74.5,157C 74.9662,155.701 74.9662,154.201 74.5,152.5C 72.1667,152.5 69.8333,152.5 67.5,152.5C 67.5,151.5 67.5,150.5 67.5,149.5C 69.8568,149.663 72.1902,149.497 74.5,149C 74.1667,148.667 73.8333,148.333 73.5,148C 74.7865,145.978 75.7865,143.811 76.5,141.5C 69.1892,140.669 61.8559,140.169 54.5,140C 55.9206,135.826 57.4206,131.659 59,127.5C 66.4205,126.684 73.9205,126.184 81.5,126C 82.4009,123.429 83.7342,121.096 85.5,119C 89.8711,118.828 94.2044,118.328 98.5,117.5C 98.7093,116.914 99.0426,116.414 99.5,116C 95.1667,115.667 90.8333,115.333 86.5,115C 87.9557,113.255 89.289,111.422 90.5,109.5C 95.8333,108.833 101.167,108.167 106.5,107.5C 110.178,102.794 113.844,98.1277 117.5,93.5C 112.868,92.6717 108.202,92.1717 103.5,92C 106.833,88.6667 110.167,85.3333 113.5,82C 109.459,81.8265 105.459,81.3265 101.5,80.5C 106.467,79.671 111.467,79.171 116.5,79C 126.207,72.8131 136.207,67.1464 146.5,62C 143.5,61.6667 140.5,61.3333 137.5,61C 148.966,56.8119 160.633,53.9786 172.5,52.5 Z"/></g>
<g><path style="opacity:1" fill="#fefefe" d="M 298.5,184.5 C 311.076,187.057 321.41,193.391 329.5,203.5C 328.167,204.167 326.833,204.833 325.5,205.5C 327.745,207.587 330.412,208.921 333.5,209.5C 332.271,210.281 330.938,210.781 329.5,211C 330.692,212.912 331.692,214.912 332.5,217C 334.256,217.202 335.922,217.702 337.5,218.5C 339.573,222.611 340.907,226.945 341.5,231.5C 343.045,232.452 344.712,232.785 346.5,232.5C 346.219,235.817 346.219,238.983 346.5,242C 344.697,244.103 342.364,244.936 339.5,244.5C 338.478,251.338 334.478,254.171 327.5,253C 325.362,256.104 323.029,256.27 320.5,253.5C 322.396,252.534 324.396,252.201 326.5,252.5C 326.425,249.794 326.092,247.127 325.5,244.5C 327.167,244.5 328.833,244.5 330.5,244.5C 329.833,240.5 329.167,236.5 328.5,232.5C 326.473,232.662 324.473,232.495 322.5,232C 320.405,226.488 317.072,221.821 312.5,218C 307.315,217.837 303.315,215.503 300.5,211C 301.833,210.667 303.167,210.333 304.5,210C 304.167,209.667 303.833,209.333 303.5,209C 299.538,209.126 296.205,207.792 293.5,205C 294.833,204.667 296.167,204.333 297.5,204C 292.333,200.167 287.167,196.333 282,192.5C 281.544,191.256 282.044,190.423 283.5,190C 289.041,189.205 294.041,187.371 298.5,184.5 Z"/></g>
<g><path style="opacity:1" fill="#fefefe" d="M 93.5,186.5 C 103.027,187.366 112.36,189.199 121.5,192C 114.865,194.65 108.865,198.316 103.5,203C 99.0153,203.626 95.0153,205.292 91.5,208C 92.8333,208.333 94.1667,208.667 95.5,209C 93.3766,210.194 91.0432,210.86 88.5,211C 86.269,212.61 84.269,214.443 82.5,216.5C 83.7287,217.281 85.062,217.781 86.5,218C 82.7168,222.003 80.0502,226.669 78.5,232C 80.1667,232.333 81.8333,232.667 83.5,233C 82.136,236.683 81.4693,240.516 81.5,244.5C 79.8333,244.5 78.1667,244.5 76.5,244.5C 76.5,247.167 76.5,249.833 76.5,252.5C 72.7809,252.368 69.2809,253.035 66,254.5C 59.9349,253.284 60.1015,252.451 66.5,252C 64.7342,249.904 63.4009,247.571 62.5,245C 64.2556,244.798 65.9223,244.298 67.5,243.5C 66.5741,239.906 66.2408,236.24 66.5,232.5C 64.8333,232.5 63.1667,232.5 61.5,232.5C 61.3488,227.708 62.0155,223.041 63.5,218.5C 62.1667,217.833 60.8333,217.167 59.5,216.5C 60.1667,214.833 60.8333,213.167 61.5,211.5C 63.9661,210.877 66.2994,210.043 68.5,209C 66.7444,208.798 65.0777,208.298 63.5,207.5C 63.6667,207.167 63.8333,206.833 64,206.5C 70.8679,203.667 76.7012,199.167 81.5,193C 85.3081,190.353 89.3081,188.186 93.5,186.5 Z"/></g>
</svg>
